<svg width="32" height="32" viewBox="0 0 32 32" fill="none" xmlns="http://www.w3.org/2000/svg">
<path fill-rule="evenodd" clip-rule="evenodd" d="M8.06189 7H8C3.58172 7 0 10.5817 0 15V24C0 28.4183 3.58172 32 8 32H16C20.0796 32 23.446 28.9463 23.9381 25H24C28.4183 25 32 21.4183 32 17V8C32 3.58172 28.4183 0 24 0H16C11.9204 0 8.55399 3.05369 8.06189 7ZM16 2H24C27.3137 2 30 4.68629 30 8V17C30 20.3137 27.3137 23 24 23H13C11.3431 23 10 21.6571 10 20C10 18.3429 11.3431 17 13 17H19C21.7614 17 24 14.7617 24 12C24 9.23831 21.7614 7 19 7H10.083C10.559 4.16229 13.027 2 16 2ZM21.917 25H13C10.2386 25 8 22.7617 8 20C8 17.2383 10.2386 15 13 15H19C20.6569 15 22 13.6571 22 12C22 10.3429 20.6569 9 19 9H8C4.68629 9 2 11.6863 2 15V24C2 27.3137 4.68629 30 8 30H16C18.973 30 21.441 27.8377 21.917 25Z" fill="black"/>
</svg>
